<?xml version="1.0" encoding="UTF-8"?>
<!DOCTYPE svg PUBLIC "-//W3C//DTD SVG 1.1//EN" "http://www.w3.org/Graphics/SVG/1.1/DTD/svg11.dtd">
<!-- Creator: CorelDRAW 2021.5 -->
<svg xmlns="http://www.w3.org/2000/svg" xml:space="preserve" width="130.265mm" height="26.5763mm" version="1.1" style="shape-rendering:geometricPrecision; text-rendering:geometricPrecision; image-rendering:optimizeQuality; fill-rule:evenodd; clip-rule:evenodd"
viewBox="0 0 36876.65 7523.49"
 xmlns:xlink="http://www.w3.org/1999/xlink"
 xmlns:xodm="http://www.corel.com/coreldraw/odm/2003">
 <defs>
  <style type="text/css">
   <![CDATA[
    .fil16 {fill:#2C4220;fill-rule:nonzero}
    .fil12 {fill:url(#id0)}
    .fil8 {fill:url(#id1)}
    .fil9 {fill:url(#id2)}
    .fil1 {fill:url(#id3)}
    .fil10 {fill:url(#id4)}
    .fil14 {fill:url(#id5)}
    .fil11 {fill:url(#id6)}
    .fil13 {fill:url(#id7)}
    .fil15 {fill:url(#id8)}
    .fil0 {fill:url(#id9)}
    .fil6 {fill:url(#id10)}
    .fil7 {fill:url(#id11)}
    .fil5 {fill:url(#id12)}
    .fil4 {fill:url(#id13)}
    .fil3 {fill:url(#id14);fill-rule:nonzero}
    .fil2 {fill:url(#id15);fill-rule:nonzero}
   ]]>
  </style>
  <linearGradient id="id0" gradientUnits="userSpaceOnUse" x1="2810.24" y1="6011.99" x2="7255.41" y2="6011.99">
   <stop offset="0" style="stop-opacity:1; stop-color:#CC9F3C"/>
   <stop offset="0.239216" style="stop-opacity:1; stop-color:#5B351B"/>
   <stop offset="0.380392" style="stop-opacity:1; stop-color:#84511F"/>
   <stop offset="0.560784" style="stop-opacity:1; stop-color:#B3721A"/>
   <stop offset="0.74902" style="stop-opacity:1; stop-color:#894F15"/>
   <stop offset="0.870588" style="stop-opacity:1; stop-color:#582C07"/>
   <stop offset="0.968627" style="stop-opacity:1; stop-color:#C7963E"/>
   <stop offset="1" style="stop-opacity:1; stop-color:#C7963E"/>
  </linearGradient>
  <linearGradient id="id1" gradientUnits="userSpaceOnUse" xlink:href="#id0" x1="-122.3" y1="4900.27" x2="2812.93" y2="4900.27">
  </linearGradient>
  <linearGradient id="id2" gradientUnits="userSpaceOnUse" xlink:href="#id0" x1="-151.99" y1="4529.08" x2="2810.24" y2="4529.08">
  </linearGradient>
  <linearGradient id="id3" gradientUnits="userSpaceOnUse" x1="43928.32" y1="-40291.8" x2="39483.15" y2="-40291.8">
   <stop offset="0" style="stop-opacity:1; stop-color:#D19021"/>
   <stop offset="1" style="stop-opacity:1; stop-color:#9D5D1D"/>
  </linearGradient>
  <linearGradient id="id4" gradientUnits="userSpaceOnUse" xlink:href="#id0" x1="4293.66" y1="2307.41" x2="7228.83" y2="2307.41">
  </linearGradient>
  <linearGradient id="id5" gradientUnits="userSpaceOnUse" xlink:href="#id0" x1="-151.99" y1="1577.97" x2="4293.18" y2="1577.97">
  </linearGradient>
  <linearGradient id="id6" gradientUnits="userSpaceOnUse" xlink:href="#id0" x1="4293.18" y1="2676.79" x2="7255.41" y2="2676.79">
  </linearGradient>
  <linearGradient id="id7" gradientUnits="userSpaceOnUse" xlink:href="#id0" x1="2810.24" y1="5640.83" x2="5774.28" y2="5640.83">
  </linearGradient>
  <linearGradient id="id8" gradientUnits="userSpaceOnUse" xlink:href="#id0" x1="957.95" y1="1566.85" x2="4293.18" y2="1566.85">
  </linearGradient>
  <linearGradient id="id9" gradientUnits="userSpaceOnUse" xlink:href="#id3" x1="-151.99" y1="1566.85" x2="4293.18" y2="1566.85">
  </linearGradient>
  <radialGradient id="id10" gradientUnits="userSpaceOnUse" gradientTransform="matrix(9.27057E-17 1.514 -1.51395 9.27026E-17 9865 -6212)" cx="5852.98" cy="2649.81" r="1568.8" fx="5852.98" fy="2649.81">
   <stop offset="0" style="stop-opacity:1; stop-color:#F5E88B"/>
   <stop offset="1" style="stop-opacity:1; stop-color:#DCA235"/>
  </radialGradient>
  <radialGradient id="id11" gradientUnits="userSpaceOnUse" gradientTransform="matrix(-1.54485 -1.8919E-16 1.89194E-16 -1.54489 11915 16478)" xlink:href="#id10" cx="4681.89" cy="6474.81" r="1568.8" fx="4681.89" fy="6474.81">
  </radialGradient>
  <radialGradient id="id12" gradientUnits="userSpaceOnUse" gradientTransform="matrix(9.25934E-17 -1.51216 1.51218 9.25945E-17 -5996 7166)" xlink:href="#id10" cx="1473" cy="4939.05" r="1570.64" fx="1473" fy="4939.05">
  </radialGradient>
  <radialGradient id="id13" gradientUnits="userSpaceOnUse" gradientTransform="matrix(1.60872 -0 -0 1.60873 -1514 -1015)" xlink:href="#id10" cx="2486.64" cy="1666.98" r="1570.64" fx="2486.64" fy="1666.98">
  </radialGradient>
  <linearGradient id="id14" gradientUnits="userSpaceOnUse" x1="39483.15" y1="-24732.87" x2="36520.92" y2="-24732.87">
   <stop offset="0" style="stop-opacity:1; stop-color:#B67724"/>
   <stop offset="1" style="stop-opacity:1; stop-color:#89491B"/>
  </linearGradient>
  <linearGradient id="id15" gradientUnits="userSpaceOnUse" xlink:href="#id14" x1="4293.18" y1="2307.41" x2="7255.41" y2="2307.41">
  </linearGradient>
 </defs>
 <g id="Camada_x0020_1">
  <metadata id="CorelCorpID_0Corel-Layer"/>
  <g id="_2187560631088">
   <g>
    <path class="fil0" d="M103.87 3085.71l1189.09 0c681.6,-2470.78 3141.26,-2848.63 3141.26,-2848.63 0,0 -470.44,-66.67 -722.33,-66.67 -1778.06,0 -3256.11,1255.76 -3596.89,2915.29m-11.13 0l0 0 0 0z"/>
    <path class="fil1" d="M7286.55 4563.73l-1203.9 0c-681.6,2474.49 -3126.45,2841.21 -3126.45,2841.21 0,0 470.44,62.99 718.62,62.99 1766.97,0 3244.98,-1255.76 3596.89,-2915.29m14.81 11.1l0 0 0 0z"/>
    <path class="fil2" d="M4434.21 237.09c1674.37,351.91 2930.13,1829.92 2930.13,3608.02 0,248.19 -66.67,718.62 -66.67,718.62 0,0 -366.72,-2444.85 -2852.33,-3137.58 -11.13,-851.99 -11.13,-666.79 -11.13,-1189.09l0 0.03z"/>
    <path class="fil3" d="M2956.2 7416.03c-1674.37,-340.78 -2930.13,-1829.92 -2930.13,-3596.89 0,-248.19 62.99,-718.62 62.99,-718.62 0,0 366.72,2444.85 2852.33,3137.58 14.81,837.18 14.81,655.67 14.81,1177.97l0 -0.03z"/>
    <path class="fil4" d="M1292.96 3085.71l1689.17 0 0 -1844.76c0,0 863.11,40.74 1452.08,185.23l0 -1177.97c-2696.75,548.23 -3141.26,2837.5 -3141.26,2837.5z"/>
    <path class="fil5" d="M2956.2 6226.94l0 -1689.17 -1844.76 0c0,0 37.06,-863.11 181.52,-1452.08l-1189.09 0c563.07,2696.75 2852.33,3141.26 2852.33,3141.26z"/>
    <path class="fil6" d="M4434.21 1426.18l0 1685.46 1829.92 0c0,0 -37.06,866.82 -181.52,1452.08l1189.09 0c-548.23,-2681.94 -2837.5,-3137.58 -2837.5,-3137.58l0 0.03z"/>
    <path class="fil7" d="M6093.75 4563.73l-1685.46 0 0 1844.76c0,0 -863.11,-37.06 -1452.08,-181.52l0 1189.09c2681.94,-548.23 3137.58,-2852.33 3137.58,-2852.33l-0.03 0z"/>
    <path class="fil8" d="M77.93 3819.17c0,-129.66 25.93,-325.98 37.06,-485.27 170.39,644.54 800.13,2370.77 2800.47,2933.84l0 1096.49c-1648.44,-366.72 -2837.5,-1855.86 -2837.5,-3545.03l-0.03 -0.03zm2878.26 3648.75l0 0 0 0c11.13,0 25.93,0 25.93,-11.13 11.13,-14.81 11.13,-25.93 11.13,-25.93l0 0 0 0 0 -1192.8 0 0c0,-11.13 -11.13,-37.06 -25.93,-37.06 -2433.73,-681.6 -2826.4,-3089.39 -2826.4,-3115.32 0,-25.93 -25.93,-37.06 -37.06,-37.06 -25.93,0 -40.74,11.13 -40.74,37.06 0,14.81 -62.99,485.27 -62.99,733.46 -14.81,1752.16 1226.12,3285.74 2956.06,3648.75 -14.81,0 0,0 0,0l0 0.03z"/>
    <path class="fil9" d="M155.73 3141.26l1085.37 0c-129.66,585.29 -170.39,1396.54 -170.39,1396.54 0,14.81 0,25.93 14.81,25.93 11.13,14.81 11.13,14.81 25.93,14.81l1803.99 0 0 1596.57c-340.78,-77.79 -2248.53,-681.6 -2759.73,-3033.85l0.03 0zm2800.47 3137.58l0 0c11.13,0 25.93,0 25.93,-11.13 11.13,-14.81 11.13,-29.64 11.13,-40.74l0 -1689.17c0,-25.93 -11.13,-37.06 -37.06,-37.06l-1807.7 0c14.81,-185.23 66.67,-889.05 185.23,-1400.22 0,-14.81 0,-25.93 -14.81,-40.74 -11.13,-11.13 -25.93,-11.13 -37.06,-11.13l-1177.97 0c-14.81,0 -25.93,0 -40.74,11.13 -11.13,14.81 -11.13,25.93 -11.13,40.74 559.36,2681.94 2863.43,3167.19 2904.2,3178.31 -14.81,0 0,0 0,0l-0.03 0z"/>
    <path class="fil10" d="M4471.27 1385.42l0 -1096.49c1648.44,377.84 2841.21,1855.86 2841.21,3556.15 0,133.36 -25.93,329.69 -40.74,485.27 -170.39,-640.86 -811.25,-2367.06 -2800.47,-2944.93zm-37.06 -1189.09l0 0 0 0c-14.81,0 -25.93,0 -25.93,11.13 -14.81,14.81 -14.81,29.64 -14.81,40.74l0 1189.09c0,29.64 14.81,40.74 25.93,40.74 2418.92,655.67 2811.57,3074.59 2811.57,3100.52 0,25.93 25.93,40.74 40.74,40.74 25.93,0 40.74,-14.81 40.74,-40.74 0,-14.81 62.99,-485.27 62.99,-733.46 14.81,-1752.16 -1229.83,-3296.84 -2941.22,-3648.75l0 0z"/>
    <path class="fil11" d="M6316.03 3111.64c0,-11.13 0,-25.93 -11.13,-25.93 -14.81,-11.13 -14.81,-11.13 -25.93,-11.13l-1807.7 0 0 -1596.57c340.78,92.6 2252.24,681.6 2759.73,3048.66l-1085.37 0c133.36,-589 170.39,-1400.22 170.39,-1415.06l0 0.03zm-233.38 1492.79l0 0 0 0 1189.09 0 0 0 0 0c14.81,0 25.93,0 25.93,-14.81 14.81,-11.13 14.81,-25.93 14.81,-37.06 -537.14,-2681.94 -2852.33,-3167.19 -2878.26,-3167.19 0,0 0,0 -14.81,0 -11.13,0 -11.13,0 -25.93,14.81 -11.13,11.13 -11.13,11.13 -11.13,25.93l0 0 0 1685.46c0,29.64 25.93,40.74 37.06,40.74l1807.7 0c-14.81,181.52 -66.67,889.05 -185.23,1400.22 0,11.13 0,25.93 14.81,40.74 11.13,11.13 11.13,11.13 25.93,11.13l0.03 0.03z"/>
    <path class="fil12" d="M3204.38 7404.91c640.86,-170.39 2367.06,-800.13 2930.13,-2800.47l1096.49 0c-363.04,1648.44 -1855.86,2837.5 -3556.15,2837.5 -129.66,0 -325.98,-11.13 -470.44,-37.06l-0.03 0.03zm4082.16 -2878.21l0 0 0 0 -1192.8 0 0 0c-11.13,0 -37.06,11.13 -37.06,25.93 -670.47,2418.92 -3089.39,2811.57 -3100.52,2826.4 -25.93,0 -40.74,25.93 -40.74,37.06 0,25.93 14.81,40.74 40.74,40.74 25.93,0 481.57,66.67 729.75,66.67 1755.84,0 3285.74,-1244.66 3652.46,-2959.77 0,-11.13 0,-25.93 -14.81,-37.06 -11.13,0 -25.93,0 -37.06,0l0.03 0.03z"/>
    <path class="fil13" d="M4434.21 6449.19c11.13,-14.81 11.13,-14.81 11.13,-25.93l0 -1818.83 1596.57 0c-92.6,340.78 -681.6,2248.53 -3048.66,2759.73l0 -1085.37c589,129.66 1400.22,170.39 1400.22,170.39 0,0 0,0 0,0 25.93,0 40.74,0 40.74,0zm-1478.01 1018.7l0 0 0 0 0 0c2693.04,-559.36 3178.31,-2874.56 3178.31,-2889.36 0,-14.81 0,-25.93 -14.81,-40.74 -11.13,-11.13 -25.93,-11.13 -37.06,-11.13l-1674.37 0c-25.93,0 -40.74,11.13 -40.74,37.06l0 1807.7c-181.52,-14.81 -889.05,-66.67 -1400.22,-185.23 -11.13,0 -25.93,0 -37.06,14.81 -14.81,11.13 -14.81,25.93 -14.81,40.74l0 1189.09c0,11.13 0,25.93 14.81,37.06 0,-11.13 11.13,-11.13 25.93,0z"/>
    <path class="fil14" d="M3700.76 207.45c129.66,0 325.98,29.64 485.27,40.74 -640.86,170.39 -2370.77,796.42 -2930.13,2800.47l-1100.17 0c366.72,-1648.44 1855.86,-2841.21 3545.03,-2841.21zm770.52 29.64l0 0 0 0c0,-29.64 -11.13,-40.74 -37.06,-40.74 -25.93,0 -485.27,-66.67 -733.46,-66.67 -1752.16,-11.13 -3282.04,1244.66 -3648.75,2956.06 0,14.81 0,25.93 11.13,40.74 14.81,0 25.93,14.81 40.74,14.81l1189.09 0c14.81,0 40.74,-14.81 40.74,-29.64 666.79,-2430.05 3074.59,-2822.69 3100.52,-2837.5 25.93,0 37.06,-11.13 37.06,-37.06z"/>
    <path class="fil15" d="M4382.35 288.92l0 1085.37c-589,-133.36 -1400.22,-170.39 -1400.22,-170.39 -14.81,0 -25.93,0 -25.93,11.13 -14.81,14.81 -14.81,14.81 -14.81,25.93l0 1807.7 -1596.57 0c77.79,-340.78 681.6,-2252.24 3037.56,-2759.73l-0.03 0zm-3100.52 2852.31l0 0 1685.46 0c25.93,0 40.74,-29.64 40.74,-40.74l0 -1803.99c181.52,11.13 889.05,62.99 1400.22,181.52 11.13,0 25.93,0 37.06,-14.81 14.81,-11.13 14.81,-25.93 14.81,-25.93l0 0 0 0 0 -1200.19 0 0 0 0c0,-14.81 0,-29.64 -14.81,-29.64 -11.13,0 -11.13,-11.13 -25.93,-11.13 0,0 0,0 -11.13,0 -2670.82,548.23 -3152.38,2863.43 -3167.19,2889.36 0,14.81 0,25.93 14.81,40.74 11.13,0 11.13,14.81 25.93,14.81l0.03 0z"/>
   </g>
   <g>
    <g>
     <path class="fil16" d="M11079.79 2407.83c0,889.05 -563.07,1400.22 -1533.59,1400.22l-848.28 0 0 1137.23 -744.56 0 0 -3871.01 1581.74 0c981.64,0 1544.71,481.57 1544.71,1333.55l-0.03 0zm-707.53 25.9c0,-470.44 -314.88,-707.53 -863.11,-707.53l-811.25 0 0 1440.99 811.25 0c548.23,-14.81 863.11,-251.89 863.11,-733.46z"/>
     <path class="fil16" d="M13680.2 4956.35l-666.79 -1148.33c-37.06,0 -88.89,0 -144.46,0l-874.21 0 0 1137.23 -744.56 0 0 -3871.01 1618.8 0c1007.58,0 1570.64,481.57 1570.64,1333.55 0,614.93 -274.12,1044.63 -770.49,1255.76l848.28 1281.69 -837.18 0 0 11.13 -0.03 -0.03zm-1685.46 -1803.97l874.21 0c551.94,0 866.82,-237.09 866.82,-718.62 0,-470.44 -314.88,-707.53 -866.82,-707.53l-874.21 0 0 1426.15z"/>
     <path class="fil16" d="M18703.24 3007.92c0,1111.3 -900.14,1974.41 -2063.3,1974.41 -1166.87,0 -2067.01,-863.11 -2067.01,-1974.41 0,-1111.3 900.14,-1963.29 2067.01,-1963.29 1163.16,14.81 2063.3,851.99 2063.3,1963.29zm-3374.64 0c0,733.46 603.8,1307.62 1322.46,1307.62 707.53,0 1296.53,-574.16 1296.53,-1307.62 0,-733.46 -589,-1292.82 -1296.53,-1292.82 -718.62,0 -1322.46,574.16 -1322.46,1292.82z"/>
     <path class="fil16" d="M19792.32 3007.92l-237.09 496.37 -692.72 0c37.06,-155.59 66.67,-311.17 66.67,-496.37l863.11 0 0.03 0z"/>
     <path class="fil16" d="M21203.7 1715.1c-351.91,0 -574.16,129.66 -574.16,363.04 0,785.32 2078.14,366.72 2078.14,1755.84 0,718.62 -626.03,1148.33 -1478.01,1148.33 -614.93,0 -1229.83,-248.19 -1633.6,-614.93l311.17 -626.03c392.65,351.91 929.78,574.16 1337.26,574.16 418.58,0 666.79,-155.59 666.79,-429.7 0,-811.25 -2081.82,-355.62 -2081.82,-1726.23 0,-681.6 577.87,-1115.01 1452.08,-1115.01 511.2,0 1033.51,170.39 1400.22,407.48l-300.05 640.86c-418.58,-248.19 -877.92,-377.84 -1177.97,-377.84l-0.06 0.03z"/>
     <path class="fil16" d="M25545.14 4134.03l-1896.62 0 -337.1 822.35 -774.2 0 1700.3 -3871.01 774.2 0 1674.37 3871.01 -800.13 0 -340.78 -822.35 -0.03 0zm-274.12 -640.83l-677.89 -1622.5 -681.6 1622.5 1359.48 0z"/>
     <path class="fil16" d="M28201.15 4315.54c589,0 955.71,-366.72 955.71,-981.64l0 -2259.63 744.56 0 0 2259.63c0,1022.38 -651.96,1648.44 -1700.3,1648.44 -1059.44,0 -1726.23,-626.03 -1726.23,-1648.44l0 -2259.63 744.56 0 0 2259.63c0,614.93 392.65,981.64 981.64,981.64l0.06 0z"/>
     <polygon class="fil16" points="29090.17,288.92 28397.47,851.96 27797.38,851.96 28386.35,0 "/>
     <path class="fil16" d="M33776.13 3007.92c0,1126.11 -851.99,1937.36 -2055.89,1937.36l-1581.74 0 0 -3871.01 1607.67 0c1192.8,0 2029.96,807.54 2029.96,1933.65zm-759.39 14.81c0,-759.39 -548.23,-1296.53 -1270.59,-1296.53l-863.11 0 0 2563.38 889.05 0c722.33,14.81 1244.66,-522.3 1244.66,-1266.89l0 0.03z"/>
     <polygon class="fil16" points="36809.99,1074.24 36809.99,1726.2 34717.04,1726.2 34717.04,2681.91 36598.83,2681.91 36598.83,3322.74 34717.04,3322.74 34717.04,4289.61 36876.65,4289.61 36876.65,4930.47 33972.49,4930.47 33972.49,1074.24 "/>
     <path class="fil16" d="M17503.08 288.92l-655.67 533.43c-207.45,-11.13 -429.7,0 -640.86,29.64l589 -851.99 707.53 288.95 0 -0.03z"/>
    </g>
    <g>
     <path class="fil16" d="M14976.7 6186.23l-325.98 0 -51.86 144.46 -170.39 0 311.17 -707.53 170.39 0 303.76 707.53 -185.23 0 -51.86 -144.46zm-51.86 -129.66l-118.53 -274.12 -118.53 274.12 237.09 0 -0.03 0z"/>
     <path class="fil16" d="M15513.86 5741.67c-51.86,0 -92.6,14.81 -92.6,51.86 0,133.36 381.55,55.57 381.55,314.88 0,144.46 -118.53,211.16 -277.82,211.16 -114.82,0 -233.38,-40.74 -311.17,-118.53l62.99 -129.66c77.79,62.99 185.23,103.72 248.19,103.72 66.67,0 107.43,-25.93 107.43,-66.67 0,-129.66 -381.55,-51.86 -381.55,-314.88 0,-129.66 103.72,-207.45 274.12,-207.45 107.43,0 196.32,25.93 277.82,77.79l-66.67 129.66c-77.79,-25.93 -170.39,-51.86 -222.25,-51.86l-0.03 -0.03z"/>
     <path class="fil16" d="M16139.86 5741.67c-51.86,0 -88.89,14.81 -88.89,51.86 0,133.36 377.84,55.57 377.84,314.88 0,144.46 -118.53,211.16 -274.12,211.16 -118.53,0 -237.09,-40.74 -314.88,-118.53l66.67 -129.66c77.79,62.99 181.52,103.72 248.19,103.72 66.67,0 103.72,-25.93 103.72,-66.67 0,-129.66 -377.84,-51.86 -377.84,-314.88 0,-129.66 103.72,-207.45 274.12,-207.45 103.72,0 196.32,25.93 274.12,77.79l-66.67 129.66c-62.99,-25.93 -155.59,-51.86 -222.25,-51.86l0 -0.03z"/>
     <path class="fil16" d="M17254.9 5963.98c0,211.16 -170.39,366.72 -381.55,366.72 -222.25,0 -377.84,-155.59 -377.84,-366.72 0,-207.45 170.39,-366.72 377.84,-366.72 211.16,14.81 381.55,159.29 381.55,366.72zm-603.8 0c0,133.36 103.72,222.25 222.25,222.25 118.53,0 211.16,-88.89 211.16,-222.25 0,-129.66 -92.6,-222.25 -211.16,-222.25 -118.53,0 -222.25,107.43 -222.25,222.25z"/>
     <path class="fil16" d="M17658.64 5741.67c-118.53,0 -222.25,92.6 -222.25,222.25 0,118.53 92.6,222.25 222.25,222.25 66.67,0 129.66,-25.93 181.52,-77.79l92.6 103.72c-77.79,81.5 -181.52,133.36 -288.95,133.36 -207.45,0 -377.84,-159.29 -377.84,-366.72 0,-211.16 170.39,-366.72 377.84,-366.72 107.43,0 211.16,40.74 277.82,118.53l-92.6 118.53c-25.93,-66.67 -103.72,-107.43 -170.39,-107.43z"/>
     <polygon class="fil16" points="18180.94,5612.04 18180.94,6319.54 18025.38,6319.54 18025.38,5612.04 "/>
     <path class="fil16" d="M18795.87 6186.23l-325.98 0 -51.86 144.46 -170.39 0 314.88 -707.53 170.39 0 300.05 707.53 -170.39 0 -66.67 -144.46 -0.03 0zm-37.06 -129.66l-118.53 -274.12 -118.53 274.12 237.09 0 -0.03 0z"/>
     <path class="fil16" d="M19436.7 6330.69l-25.93 51.86c40.74,14.81 66.67,40.74 66.67,81.5 0,62.99 -51.86,103.72 -118.53,103.72 -25.93,0 -66.67,-14.81 -92.6,-25.93l25.93 -66.67c14.81,14.81 40.74,25.93 55.57,25.93 25.93,0 37.06,-11.13 37.06,-37.06 0,-29.64 -11.13,-40.74 -51.86,-40.74 -14.81,0 -25.93,0 -40.74,0l40.74 -77.79c-196.32,-25.93 -325.98,-170.39 -325.98,-366.72 0,-211.16 170.39,-366.72 377.84,-366.72 103.72,0 211.16,40.74 274.12,118.53l-88.89 118.53c-55.57,-55.57 -118.53,-92.6 -185.23,-92.6 -118.53,0 -222.25,92.6 -222.25,222.25 0,118.53 92.6,222.25 222.25,222.25 66.67,0 129.66,-25.93 185.23,-77.79l88.89 103.72c-37.06,40.74 -129.66,92.6 -222.25,103.72l-0.03 -0.03z"/>
     <path class="fil16" d="M20236.83 6186.23l-329.69 0 -51.86 144.46 -170.39 0 314.88 -707.53 170.39 0 300.05 707.53 -170.39 0 -62.99 -144.46zm-237.06 -666.79l-92.6 0c0,-103.72 40.74,-155.59 107.43,-155.59 62.99,0 88.89,51.86 114.82,51.86 25.93,0 40.74,-14.81 40.74,-40.74l92.6 0c0,107.43 -40.74,159.29 -107.43,159.29 -62.99,0 -88.89,-51.86 -114.82,-51.86 -40.74,0 -40.74,11.13 -40.74,37.06l0 -0.03zm185.2 537.14l-118.53 -274.12 -118.53 274.12 237.09 0 -0.03 0z"/>
     <path class="fil16" d="M21218.47 5963.98c0,211.16 -170.39,366.72 -381.55,366.72 -222.25,0 -377.84,-155.59 -377.84,-366.72 0,-207.45 170.39,-366.72 377.84,-366.72 222.25,14.81 381.55,159.29 381.55,366.72zm-603.8 0c0,133.36 103.72,222.25 222.25,222.25 118.53,0 211.16,-88.89 211.16,-222.25 0,-129.66 -92.6,-222.25 -211.16,-222.25 -118.53,0 -222.25,107.43 -222.25,222.25z"/>
     <path class="fil16" d="M22196.44 5793.56c0,81.5 -51.86,133.36 -114.82,159.29 88.89,11.13 140.75,88.89 140.75,181.52 0,118.53 -103.72,196.32 -274.12,196.32l-340.78 0 0 -707.53 329.69 0c155.59,-11.13 259.31,55.57 259.31,170.39l-0.03 0zm-170.42 25.93c0,-51.86 -37.06,-77.79 -88.89,-77.79l-159.29 0 0 159.29 159.29 0c51.86,0 88.89,-25.93 88.89,-81.5zm29.64 288.92c0,-51.86 -55.57,-77.79 -118.53,-77.79l-159.29 0 0 170.39 159.29 0c62.99,-14.81 118.53,-40.74 118.53,-92.6z"/>
     <polygon class="fil16" points="22863.2,5612.04 22863.2,5741.67 22485.36,5741.67 22485.36,5900.96 22826.17,5900.96 22826.17,6030.65 22485.36,6030.65 22485.36,6186.23 22878.03,6186.23 22878.03,6319.54 22329.77,6319.54 22329.77,5612.04 "/>
     <polygon class="fil16" points="23141.02,5612.04 23478.13,6071.38 23478.13,5612.04 23637.42,5612.04 23637.42,6319.54 23492.93,6319.54 23152.15,5860.23 23152.15,6319.54 22996.56,6319.54 22996.56,5612.04 "/>
     <polygon class="fil16" points="24330.12,5612.04 24330.12,5741.67 23952.28,5741.67 23952.28,5900.96 24289.38,5900.96 24289.38,6030.65 23952.28,6030.65 23952.28,6186.23 24344.92,6186.23 24344.92,6319.54 23792.98,6319.54 23792.98,5612.04 "/>
     <polygon class="fil16" points="24970.98,5612.04 24970.98,5741.67 24619.07,5741.67 24619.07,5912.09 24945.05,5912.09 24945.05,6041.74 24619.07,6041.74 24619.07,6319.54 24459.77,6319.54 24459.77,5612.04 "/>
     <polygon class="fil16" points="25208.04,5612.04 25208.04,6319.54 25048.77,6319.54 25048.77,5612.04 "/>
     <path class="fil16" d="M25689.6 5741.67c-118.53,0 -222.25,92.6 -222.25,222.25 0,118.53 92.6,222.25 222.25,222.25 66.67,0 133.36,-25.93 185.23,-77.79l88.89 103.72c-77.79,81.5 -181.52,133.36 -285.24,133.36 -211.16,0 -381.55,-159.29 -381.55,-366.72 0,-211.16 170.39,-366.72 381.55,-366.72 103.72,0 207.45,40.74 274.12,118.53l-92.6 118.53c-37.06,-66.67 -103.72,-107.43 -170.39,-107.43z"/>
     <polygon class="fil16" points="26593.45,5612.04 26593.45,5741.67 26215.61,5741.67 26215.61,5900.96 26552.72,5900.96 26552.72,6030.65 26215.61,6030.65 26215.61,6186.23 26604.58,6186.23 26604.58,6319.54 26056.35,6319.54 26056.35,5612.04 "/>
     <polygon class="fil16" points="26867.57,5612.04 27208.38,6071.38 27208.38,5612.04 27363.97,5612.04 27363.97,6319.54 27219.48,6319.54 26882.4,5860.23 26882.4,6319.54 26723.11,6319.54 26723.11,5612.04 "/>
     <polygon class="fil16" points="28045.56,5612.04 28045.56,5741.67 27823.31,5741.67 27823.31,6319.54 27667.72,6319.54 27667.72,5741.67 27441.76,5741.67 27441.76,5612.04 "/>
     <polygon class="fil16" points="28660.47,5612.04 28660.47,5741.67 28282.62,5741.67 28282.62,5900.96 28619.73,5900.96 28619.73,6030.65 28282.62,6030.65 28282.62,6186.23 28671.59,6186.23 28671.59,6319.54 28112.23,6319.54 28112.23,5612.04 "/>
     <path class="fil16" d="M29760.67 5963.98c0,211.16 -159.29,355.62 -381.55,355.62l-300.05 0 0 -707.53 300.05 0c222.25,0 381.55,144.46 381.55,351.91zm-170.42 0c0,-129.66 -92.6,-222.25 -211.16,-222.25l-144.46 0 0 444.51 144.46 0c129.66,0 211.16,-88.89 211.16,-222.25z"/>
     <polygon class="fil16" points="30401.5,5612.04 30401.5,5741.67 30019.95,5741.67 30019.95,5900.96 30360.76,5900.96 30360.76,6030.65 30019.95,6030.65 30019.95,6186.23 30412.62,6186.23 30412.62,6319.54 29864.39,6319.54 29864.39,5612.04 "/>
     <path class="fil16" d="M13654.27 7353.07l-325.98 0 -51.86 140.75 -170.39 0 314.88 -703.82 170.39 0 300.05 707.53 -170.39 -3.71 -66.67 -140.75 -0.03 0zm-51.86 -133.34l-118.53 -274.12 -114.82 274.12 233.38 0 -0.03 0z"/>
     <path class="fil16" d="M14191.38 6908.54c-51.86,0 -92.6,11.13 -92.6,51.86 0,129.66 381.55,51.86 381.55,311.17 0,144.46 -118.53,211.16 -274.12,211.16 -118.53,0 -237.09,-40.74 -314.88,-118.53l66.67 -129.66c77.79,62.99 181.52,103.72 248.19,103.72 62.99,0 103.72,-25.93 103.72,-66.67 0,-129.66 -377.84,-51.86 -377.84,-311.17 0,-133.36 103.72,-211.16 274.12,-211.16 103.72,0 196.32,25.93 274.12,77.79l-66.67 133.36c-77.79,-25.93 -170.39,-51.86 -222.25,-51.86l0 -0.03z"/>
     <path class="fil16" d="M14821.14 6908.54c-51.86,0 -92.6,11.13 -92.6,51.86 0,129.66 377.84,51.86 377.84,311.17 0,144.46 -114.82,211.16 -274.12,211.16 -118.53,0 -233.38,-40.74 -314.88,-118.53l66.67 -129.66c77.79,62.99 185.23,103.72 248.19,103.72 66.67,0 103.72,-25.93 103.72,-66.67 0,-129.66 -377.84,-51.86 -377.84,-311.17 0,-133.36 103.72,-211.16 274.12,-211.16 103.72,0 196.32,25.93 274.12,77.79l-62.99 133.36c-77.79,-25.93 -159.29,-51.86 -222.25,-51.86l0.03 -0.03z"/>
     <polygon class="fil16" points="15369.37,6775.2 15369.37,7482.7 15213.79,7482.7 15213.79,6775.2 "/>
     <path class="fil16" d="M15773.12 6908.54c-51.86,0 -88.89,11.13 -88.89,51.86 0,129.66 377.84,51.86 377.84,311.17 0,144.46 -118.53,211.16 -274.12,211.16 -118.53,0 -237.09,-40.74 -314.88,-118.53l66.67 -129.66c77.79,62.99 181.52,103.72 248.19,103.72 66.67,0 103.72,-25.93 103.72,-66.67 0,-129.66 -377.84,-51.86 -377.84,-311.17 0,-133.36 103.72,-211.16 274.12,-211.16 103.72,0 196.32,25.93 274.12,77.79l-62.99 133.36c-81.5,-25.93 -170.39,-51.86 -225.96,-51.86l0.03 -0.03z"/>
     <polygon class="fil16" points="16691.8,6775.2 16691.8,6908.54 16469.55,6908.54 16469.55,7482.7 16310.28,7482.7 16310.28,6908.54 16088,6908.54 16088,6775.2 "/>
     <path class="fil16" d="M17306.73 6775.2l0 133.36 -381.55 0 0 155.59 340.78 0 0 129.66 -340.78 0 0 159.29 392.65 0 0 129.66 -548.23 0 0 -707.53 537.14 0 0 -0.03zm-196.32 -222.25l103.72 159.29 -118.53 0 -66.67 -92.6 -62.99 92.6 -103.72 0 103.72 -159.29 144.46 0z"/>
     <polygon class="fil16" points="17580.85,6775.2 17921.63,7234.52 17921.63,6775.2 18077.22,6775.2 18077.22,7482.7 17932.78,7482.7 17591.94,7023.39 17591.94,7482.7 17436.36,7482.7 17436.36,6775.2 "/>
     <path class="fil16" d="M18547.68 6908.54c-118.53,0 -222.25,88.89 -222.25,222.25 0,114.82 92.6,222.25 222.25,222.25 66.67,0 129.66,-25.93 185.23,-81.5l88.89 107.43c-77.79,77.79 -181.52,129.66 -285.24,129.66 -211.16,0 -381.55,-155.59 -381.55,-366.72 0,-207.45 170.39,-366.72 381.55,-366.72 103.72,0 207.45,40.74 274.12,118.53l-92.6 118.53c-25.93,-66.67 -103.72,-103.72 -170.39,-103.72z"/>
     <polygon class="fil16" points="19084.79,6775.2 19084.79,7482.7 18929.21,7482.7 18929.21,6775.2 "/>
     <path class="fil16" d="M19699.75 7353.07l-325.98 0 -55.57 140.75 -166.68 0 311.17 -703.82 170.39 0 300.05 707.53 -166.68 -3.71 -66.67 -140.75 -0.03 0zm-51.86 -133.34l-118.53 -274.12 -118.53 274.12 237.09 0 -0.03 0z"/>
     <path class="fil16" d="M20522.07 6908.54c-51.86,0 -88.89,11.13 -88.89,51.86 0,129.66 377.84,51.86 377.84,311.17 0,144.46 -118.53,211.16 -274.12,211.16 -118.53,0 -237.09,-40.74 -314.88,-118.53l66.67 -129.66c77.79,62.99 181.52,103.72 248.19,103.72 66.67,0 103.72,-25.93 103.72,-66.67 0,-129.66 -377.84,-51.86 -377.84,-311.17 0,-133.36 103.72,-211.16 274.12,-211.16 103.72,0 196.32,25.93 274.12,77.79l-66.67 133.36c-62.99,-25.93 -155.59,-51.86 -222.25,-51.86l0 -0.03z"/>
     <path class="fil16" d="M21637.08 7130.82c0,207.45 -170.39,363.04 -381.55,363.04 -222.25,0 -377.84,-155.59 -377.84,-363.04 0,-211.16 170.39,-366.72 377.84,-366.72 211.16,0 381.55,155.59 381.55,366.72zm-603.8 0c0,129.66 103.72,222.25 222.25,222.25 118.53,0 211.16,-92.6 211.16,-222.25 0,-133.36 -92.6,-222.25 -211.16,-222.25 -118.53,0 -222.25,103.72 -222.25,222.25z"/>
     <path class="fil16" d="M22040.85 6908.54c-118.53,0 -222.25,88.89 -222.25,222.25 0,114.82 92.6,222.25 222.25,222.25 66.67,0 129.66,-25.93 181.52,-81.5l92.6 107.43c-77.79,77.79 -181.52,129.66 -288.95,129.66 -207.45,0 -377.84,-155.59 -377.84,-366.72 0,-207.45 170.39,-366.72 377.84,-366.72 107.43,0 211.16,40.74 277.82,118.53l-92.6 118.53c-40.74,-66.67 -103.72,-103.72 -170.39,-103.72z"/>
     <polygon class="fil16" points="22563.15,6775.2 22563.15,7482.7 22407.57,7482.7 22407.57,6775.2 "/>
     <path class="fil16" d="M23178.08 7353.07l-325.98 0 -51.86 140.75 -170.39 0 314.88 -703.82 170.39 0 300.05 707.53 -170.39 -3.71 -66.67 -140.75 -0.03 0zm-51.86 -133.34l-118.53 -274.12 -114.82 274.12 233.38 0 -0.03 0z"/>
     <polygon class="fil16" points="23637.42,6775.2 23637.42,7353.07 23937.47,7353.07 23937.47,7493.86 23467,7493.86 23467,6790.04 23637.42,6790.04 "/>
     <polygon class="fil16" points="24867.25,6775.2 24867.25,6908.54 24485.7,6908.54 24485.7,7064.15 24826.49,7064.15 24826.49,7193.81 24485.7,7193.81 24485.7,7353.07 24878.35,7353.07 24878.35,7482.7 24315.31,7482.7 24315.31,6775.2 "/>
     <polygon class="fil16" points="25441.42,6775.2 25441.42,7075.25 25767.4,7075.25 25767.4,6775.2 25926.69,6775.2 25926.69,7482.7 25767.4,7482.7 25767.4,7208.58 25441.42,7208.58 25441.42,7482.7 25285.83,7482.7 25285.83,6775.2 "/>
     <path class="fil16" d="M26789.8 7130.82c0,207.45 -170.39,363.04 -377.84,363.04 -225.96,0 -381.55,-155.59 -381.55,-363.04 0,-211.16 170.39,-366.72 381.55,-366.72 222.25,0 377.84,155.59 377.84,366.72zm-603.83 0c0,129.66 107.43,222.25 225.96,222.25 114.82,0 207.45,-92.6 207.45,-222.25 0,-133.36 -92.6,-222.25 -207.45,-222.25 -118.53,0 -225.96,103.72 -225.96,222.25z"/>
     <path class="fil16" d="M27130.59 6908.54c-51.86,0 -92.6,11.13 -92.6,51.86 0,129.66 377.84,51.86 377.84,311.17 0,144.46 -114.82,211.16 -274.12,211.16 -114.82,0 -233.38,-40.74 -311.17,-118.53l62.99 -129.66c77.79,62.99 185.23,103.72 248.19,103.72 66.67,0 107.43,-25.93 107.43,-66.67 0,-129.66 -381.55,-51.86 -381.55,-311.17 0,-133.36 103.72,-211.16 274.12,-211.16 107.43,0 196.32,25.93 274.12,77.79l-62.99 133.36c-66.67,-25.93 -159.29,-51.86 -222.25,-51.86l0 -0.03z"/>
     <path class="fil16" d="M28112.23 7023.39c0,170.39 -107.43,263.02 -288.95,263.02l-144.46 0 0 207.45 -155.59 0 0 -703.82 300.05 0c181.52,-14.81 288.95,77.79 288.95,233.38l0 -0.03zm-159.32 0c0,-77.79 -51.86,-114.82 -144.46,-114.82l-129.66 0 0 233.38 129.66 0c107.43,0 144.46,-37.06 144.46,-118.53l0 -0.03z"/>
     <polygon class="fil16" points="28360.42,6775.2 28360.42,7482.7 28201.15,7482.7 28201.15,6775.2 "/>
     <polygon class="fil16" points="29038.31,6775.2 29038.31,6908.54 28816.05,6908.54 28816.05,7482.7 28660.47,7482.7 28660.47,6908.54 28438.21,6908.54 28438.21,6775.2 "/>
     <path class="fil16" d="M29508.77 7353.07l-325.98 0 -51.86 140.75 -170.39 0 314.88 -703.82 170.39 0 300.05 707.53 -170.39 -3.71 -66.67 -140.75 -0.03 0zm-51.86 -133.34l-114.82 -274.12 -118.53 274.12 233.38 0 -0.03 0z"/>
     <polygon class="fil16" points="29968.09,6775.2 29968.09,7353.07 30268.16,7353.07 30268.16,7493.86 29797.7,7493.86 29797.7,6790.04 29968.09,6790.04 "/>
     <path class="fil16" d="M30831.2 7353.07l-325.98 0 -51.86 140.75 -170.39 0 314.88 -703.82 166.68 0 303.76 707.53 -170.39 -3.71 -66.67 -140.75 -0.03 0zm-51.86 -133.34l-118.53 -274.12 -118.53 274.12 237.09 0 -0.03 0z"/>
     <path class="fil16" d="M31549.86 7482.7l-114.82 -211.16 -14.81 0 -144.46 0 0 211.16 -155.59 0 0 -707.53 314.88 0c181.52,0 285.24,92.6 285.24,248.19 0,107.43 -51.86,185.23 -129.66,237.09l155.59 237.09 -196.32 -3.71 0 -11.13 -0.06 0zm-274.12 -340.78l144.46 0c92.6,0 144.46,-37.06 144.46,-118.53 0,-77.79 -51.86,-114.82 -144.46,-114.82l-144.46 0 0 233.38 0 -0.03z"/>
    </g>
   </g>
  </g>
 </g>
</svg>
